# xmcd CD database file
#
# Track frame offsets:
#	150
#	22773
#	40296
#	81669
#	102717
#	126465
#	152163
#	173811
#	200859
#	228882
#	246930
#	271728
#	287526
#
# Disc length: 4064 seconds
#
# Revision: 2
# Processed by: cddbd v1.5.2PL0 Copyright (c) Steve Scherf et al.
# Submitted via: CDex 1.70beta2
#
DISCID=b80fde0d
DTITLE=Robert Len Stallard (RLSguitar) - RLSguitar Sampler Demo-01
DYEAR=2008
DGENRE=New Age
TTITLE0=In the Arms of God
TTITLE1=Sacred Heart (Harp Guitar)
TTITLE2=Blues for After the Rain
TTITLE3=Spirits of the Sea
TTITLE4=Earth Rising
TTITLE5=Once Upon a Home on the Range
TTITLE6=The Road of Happy Destiny
TTITLE7=A New Beginning
TTITLE8=Joshua's Lullaby
TTITLE9=Loving Monica
TTITLE10=The Water is Wide (Traditional)
TTITLE11=Silent Night (Traditional)
TTITLE12=BONUS TRACK: The RLSguitar Shred
EXTD=YEAR: 2008
EXTT0=
EXTT1=
EXTT2=
EXTT3=
EXTT4=
EXTT5=
EXTT6=
EXTT7=
EXTT8=
EXTT9=
EXTT10=
EXTT11=
EXTT12=
PLAYORDER=
